<svg xmlns="http://www.w3.org/2000/svg" width="250" height="249.984" viewBox="0 0 250 249.984"><g transform="translate(3323.69 1940.687)"><rect width="250" height="15.625" transform="translate(-3323.69 -1940.687)" fill="#464749"/><rect width="250" height="15.636" transform="translate(-3323.69 -1706.34)" fill="#464749"/><path d="M69.873,51.994V61.4h-16.2V52.866q0-8.361-1.4-11.763a5.293,5.293,0,0,0-5.4-3.4q-5.061,0-6.534,3.912-1.49,3.917-1.481,13.656v68.542q0,9.908,1.394,13.743t6.271,3.83a5.638,5.638,0,0,0,5.574-3.38q1.572-3.374,1.575-10.989V115.768h16.2v11.456q0,15.085-5.037,21.073t-18.753,5.986q-13.883,0-18.747-7.571t-4.861-26.017V58.4q0-18.443,4.965-25.929t19.082-7.483q13.423,0,18.385,6.013t4.965,21" transform="translate(-3299.461 -1905.208)" fill="#464749"/><path d="M32.386,25.365h46.7V38.609H63.927V150.653H47.545V38.609H32.386Z" transform="translate(-3255.001 -1903.497)" fill="#464749"/><path d="M89.378,49.552V60.531H73.171V48.51q0-6.1-1.306-8.542c-.878-1.624-2.524-2.436-4.971-2.436q-4.353,0-5.662,2.875T59.926,50.792v6.1a20.058,20.058,0,0,0,1.9,8.729,51.288,51.288,0,0,0,4.658,7.324L81.823,94.9a53.864,53.864,0,0,1,6.057,10.759A32.223,32.223,0,0,1,89.9,117.644V125.8q0,28.475-24.744,28.48-12.9,0-17.864-5.816t-4.965-19.34V116.816H58.879v12.63q0,6.576,1.465,9.261t5.421,2.677c2.985,0,4.971-1.1,5.942-3.292s1.465-5.958,1.465-11.28v-7.286a22.218,22.218,0,0,0-1.871-9.2q-1.012-2.082-4.746-7.807L50.342,79q-6.625-9.579-6.622-18.473V51.818q0-26.829,24.223-26.834,11.5,0,16.465,5.838t4.971,18.731" transform="translate(-3210.405 -1905.208)" fill="#464749"/></g></svg>