<svg xmlns="http://www.w3.org/2000/svg" width="680" height="501" viewBox="0 0 680 501"><g opacity="0.2"><g transform="translate(615 8) rotate(-90)" fill="none" stroke="#58595b" stroke-width="2"><circle cx="4" cy="4" r="4" stroke="none"/><circle cx="4" cy="4" r="3" fill="none"/></g><g transform="translate(643 8) rotate(-90)" fill="none" stroke="#58595b" stroke-width="2"><circle cx="4" cy="4" r="4" stroke="none"/><circle cx="4" cy="4" r="3" fill="none"/></g><g transform="translate(671 8) rotate(-90)" fill="none" stroke="#58595b" stroke-width="2"><circle cx="4" cy="4" r="4" stroke="none"/><circle cx="4" cy="4" r="3" fill="none"/></g><g transform="translate(615 37) rotate(-90)" fill="none" stroke="#58595b" stroke-width="2"><circle cx="4" cy="4" r="4" stroke="none"/><circle cx="4" cy="4" r="3" fill="none"/></g><g transform="translate(643 37) rotate(-90)" fill="none" stroke="#58595b" stroke-width="2"><circle cx="4" cy="4" r="4" stroke="none"/><circle cx="4" cy="4" r="3" fill="none"/></g><g transform="translate(671 37) rotate(-90)" fill="none" stroke="#58595b" stroke-width="2"><circle cx="4" cy="4" r="4" stroke="none"/><circle cx="4" cy="4" r="3" fill="none"/></g><g transform="translate(615 66) rotate(-90)" fill="none" stroke="#58595b" stroke-width="2"><circle cx="4" cy="4" r="4" stroke="none"/><circle cx="4" cy="4" r="3" fill="none"/></g><g transform="translate(643 66) rotate(-90)" fill="none" stroke="#58595b" stroke-width="2"><circle cx="4" cy="4" r="4" stroke="none"/><circle cx="4" cy="4" r="3" fill="none"/></g><g transform="translate(671 66) rotate(-90)" fill="none" stroke="#58595b" stroke-width="2"><circle cx="4" cy="4" r="4" stroke="none"/><circle cx="4" cy="4" r="3" fill="none"/></g><g transform="translate(615 95) rotate(-90)" fill="none" stroke="#58595b" stroke-width="2"><circle cx="4" cy="4" r="4" stroke="none"/><circle cx="4" cy="4" r="3" fill="none"/></g><g transform="translate(643 95) rotate(-90)" fill="none" stroke="#58595b" stroke-width="2"><circle cx="4" cy="4" r="4" stroke="none"/><circle cx="4" cy="4" r="3" fill="none"/></g><g transform="translate(671 95) rotate(-90)" fill="none" stroke="#58595b" stroke-width="2"><circle cx="4" cy="4" r="4" stroke="none"/><circle cx="4" cy="4" r="3" fill="none"/></g><g transform="translate(615 124) rotate(-90)" fill="none" stroke="#58595b" stroke-width="2"><circle cx="4" cy="4" r="4" stroke="none"/><circle cx="4" cy="4" r="3" fill="none"/></g><g transform="translate(643 124) rotate(-90)" fill="none" stroke="#58595b" stroke-width="2"><circle cx="4" cy="4" r="4" stroke="none"/><circle cx="4" cy="4" r="3" fill="none"/></g><g transform="translate(671 124) rotate(-90)" fill="none" stroke="#58595b" stroke-width="2"><circle cx="4" cy="4" r="4" stroke="none"/><circle cx="4" cy="4" r="3" fill="none"/></g><g transform="translate(615 153) rotate(-90)" fill="none" stroke="#58595b" stroke-width="2"><circle cx="4" cy="4" r="4" stroke="none"/><circle cx="4" cy="4" r="3" fill="none"/></g><g transform="translate(643 153) rotate(-90)" fill="none" stroke="#58595b" stroke-width="2"><circle cx="4" cy="4" r="4" stroke="none"/><circle cx="4" cy="4" r="3" fill="none"/></g><g transform="translate(671 153) rotate(-90)" fill="none" stroke="#58595b" stroke-width="2"><circle cx="4" cy="4" r="4" stroke="none"/><circle cx="4" cy="4" r="3" fill="none"/></g><g transform="translate(615 182) rotate(-90)" fill="none" stroke="#58595b" stroke-width="2"><circle cx="4" cy="4" r="4" stroke="none"/><circle cx="4" cy="4" r="3" fill="none"/></g><g transform="translate(643 182) rotate(-90)" fill="none" stroke="#58595b" stroke-width="2"><circle cx="4" cy="4" r="4" stroke="none"/><circle cx="4" cy="4" r="3" fill="none"/></g><g transform="translate(671 182) rotate(-90)" fill="none" stroke="#58595b" stroke-width="2"><circle cx="4" cy="4" r="4" stroke="none"/><circle cx="4" cy="4" r="3" fill="none"/></g><g transform="translate(615 211) rotate(-90)" fill="none" stroke="#58595b" stroke-width="2"><circle cx="4" cy="4" r="4" stroke="none"/><circle cx="4" cy="4" r="3" fill="none"/></g><g transform="translate(643 211) rotate(-90)" fill="none" stroke="#58595b" stroke-width="2"><circle cx="4" cy="4" r="4" stroke="none"/><circle cx="4" cy="4" r="3" fill="none"/></g><g transform="translate(671 211) rotate(-90)" fill="none" stroke="#58595b" stroke-width="2"><circle cx="4" cy="4" r="4" stroke="none"/><circle cx="4" cy="4" r="3" fill="none"/></g><g transform="translate(615 240) rotate(-90)" fill="none" stroke="#58595b" stroke-width="2"><circle cx="4" cy="4" r="4" stroke="none"/><circle cx="4" cy="4" r="3" fill="none"/></g><g transform="translate(643 240) rotate(-90)" fill="none" stroke="#58595b" stroke-width="2"><circle cx="4" cy="4" r="4" stroke="none"/><circle cx="4" cy="4" r="3" fill="none"/></g><g transform="translate(671 240) rotate(-90)" fill="none" stroke="#58595b" stroke-width="2"><circle cx="4" cy="4" r="4" stroke="none"/><circle cx="4" cy="4" r="3" fill="none"/></g><g transform="translate(615 269) rotate(-90)" fill="none" stroke="#58595b" stroke-width="2"><circle cx="4" cy="4" r="4" stroke="none"/><circle cx="4" cy="4" r="3" fill="none"/></g><g transform="translate(643 269) rotate(-90)" fill="none" stroke="#58595b" stroke-width="2"><circle cx="4" cy="4" r="4" stroke="none"/><circle cx="4" cy="4" r="3" fill="none"/></g><g transform="translate(671 269) rotate(-90)" fill="none" stroke="#58595b" stroke-width="2"><circle cx="4" cy="4" r="4" stroke="none"/><circle cx="4" cy="4" r="3" fill="none"/></g><g transform="translate(615 298) rotate(-90)" fill="none" stroke="#58595b" stroke-width="2"><circle cx="4" cy="4" r="4" stroke="none"/><circle cx="4" cy="4" r="3" fill="none"/></g><g transform="translate(643 298) rotate(-90)" fill="none" stroke="#58595b" stroke-width="2"><circle cx="4" cy="4" r="4" stroke="none"/><circle cx="4" cy="4" r="3" fill="none"/></g><g transform="translate(671 298) rotate(-90)" fill="none" stroke="#58595b" stroke-width="2"><circle cx="4" cy="4" r="4" stroke="none"/><circle cx="4" cy="4" r="3" fill="none"/></g><g transform="translate(615 327) rotate(-90)" fill="none" stroke="#58595b" stroke-width="2"><circle cx="4" cy="4" r="4" stroke="none"/><circle cx="4" cy="4" r="3" fill="none"/></g><g transform="translate(643 327) rotate(-90)" fill="none" stroke="#58595b" stroke-width="2"><circle cx="4" cy="4" r="4" stroke="none"/><circle cx="4" cy="4" r="3" fill="none"/></g><g transform="translate(671 327) rotate(-90)" fill="none" stroke="#58595b" stroke-width="2"><circle cx="4" cy="4" r="4" stroke="none"/><circle cx="4" cy="4" r="3" fill="none"/></g><g transform="translate(615 356) rotate(-90)" fill="none" stroke="#58595b" stroke-width="2"><circle cx="4" cy="4" r="4" stroke="none"/><circle cx="4" cy="4" r="3" fill="none"/></g><g transform="translate(643 356) rotate(-90)" fill="none" stroke="#58595b" stroke-width="2"><circle cx="4" cy="4" r="4" stroke="none"/><circle cx="4" cy="4" r="3" fill="none"/></g><g transform="translate(671 356) rotate(-90)" fill="none" stroke="#58595b" stroke-width="2"><circle cx="4" cy="4" r="4" stroke="none"/><circle cx="4" cy="4" r="3" fill="none"/></g><g transform="translate(615 385) rotate(-90)" fill="none" stroke="#58595b" stroke-width="2"><circle cx="4" cy="4" r="4" stroke="none"/><circle cx="4" cy="4" r="3" fill="none"/></g><g transform="translate(643 385) rotate(-90)" fill="none" stroke="#58595b" stroke-width="2"><circle cx="4" cy="4" r="4" stroke="none"/><circle cx="4" cy="4" r="3" fill="none"/></g><g transform="translate(671 385) rotate(-90)" fill="none" stroke="#58595b" stroke-width="2"><circle cx="4" cy="4" r="4" stroke="none"/><circle cx="4" cy="4" r="3" fill="none"/></g><g transform="translate(615 414) rotate(-90)" fill="none" stroke="#58595b" stroke-width="2"><circle cx="4" cy="4" r="4" stroke="none"/><circle cx="4" cy="4" r="3" fill="none"/></g><g transform="translate(643 414) rotate(-90)" fill="none" stroke="#58595b" stroke-width="2"><circle cx="4" cy="4" r="4" stroke="none"/><circle cx="4" cy="4" r="3" fill="none"/></g><g transform="translate(671 414) rotate(-90)" fill="none" stroke="#58595b" stroke-width="2"><circle cx="4" cy="4" r="4" stroke="none"/><circle cx="4" cy="4" r="3" fill="none"/></g><g transform="translate(0 435)"><g transform="translate(484) rotate(90)"><g transform="translate(8 484) rotate(180)" fill="none" stroke="#58595b" stroke-width="2"><circle cx="4" cy="4" r="4" stroke="none"/><circle cx="4" cy="4" r="3" fill="none"/></g><g transform="translate(8 456) rotate(180)" fill="none" stroke="#58595b" stroke-width="2"><circle cx="4" cy="4" r="4" stroke="none"/><circle cx="4" cy="4" r="3" fill="none"/></g><g transform="translate(8 428) rotate(180)" fill="none" stroke="#58595b" stroke-width="2"><circle cx="4" cy="4" r="4" stroke="none"/><circle cx="4" cy="4" r="3" fill="none"/></g><g transform="translate(8 400) rotate(180)" fill="none" stroke="#58595b" stroke-width="2"><circle cx="4" cy="4" r="4" stroke="none"/><circle cx="4" cy="4" r="3" fill="none"/></g><g transform="translate(8 372) rotate(180)" fill="none" stroke="#58595b" stroke-width="2"><circle cx="4" cy="4" r="4" stroke="none"/><circle cx="4" cy="4" r="3" fill="none"/></g><g transform="translate(8 344) rotate(180)" fill="none" stroke="#58595b" stroke-width="2"><circle cx="4" cy="4" r="4" stroke="none"/><circle cx="4" cy="4" r="3" fill="none"/></g><g transform="translate(8 316) rotate(180)" fill="none" stroke="#58595b" stroke-width="2"><circle cx="4" cy="4" r="4" stroke="none"/><circle cx="4" cy="4" r="3" fill="none"/></g><g transform="translate(8 288) rotate(180)" fill="none" stroke="#58595b" stroke-width="2"><circle cx="4" cy="4" r="4" stroke="none"/><circle cx="4" cy="4" r="3" fill="none"/></g><g transform="translate(8 260) rotate(180)" fill="none" stroke="#58595b" stroke-width="2"><circle cx="4" cy="4" r="4" stroke="none"/><circle cx="4" cy="4" r="3" fill="none"/></g><g transform="translate(8 232) rotate(180)" fill="none" stroke="#58595b" stroke-width="2"><circle cx="4" cy="4" r="4" stroke="none"/><circle cx="4" cy="4" r="3" fill="none"/></g><g transform="translate(8 204) rotate(180)" fill="none" stroke="#58595b" stroke-width="2"><circle cx="4" cy="4" r="4" stroke="none"/><circle cx="4" cy="4" r="3" fill="none"/></g><g transform="translate(8 176) rotate(180)" fill="none" stroke="#58595b" stroke-width="2"><circle cx="4" cy="4" r="4" stroke="none"/><circle cx="4" cy="4" r="3" fill="none"/></g><g transform="translate(8 148) rotate(180)" fill="none" stroke="#58595b" stroke-width="2"><circle cx="4" cy="4" r="4" stroke="none"/><circle cx="4" cy="4" r="3" fill="none"/></g><g transform="translate(8 120) rotate(180)" fill="none" stroke="#58595b" stroke-width="2"><circle cx="4" cy="4" r="4" stroke="none"/><circle cx="4" cy="4" r="3" fill="none"/></g><g transform="translate(8 92) rotate(180)" fill="none" stroke="#58595b" stroke-width="2"><circle cx="4" cy="4" r="4" stroke="none"/><circle cx="4" cy="4" r="3" fill="none"/></g><g transform="translate(8 64) rotate(180)" fill="none" stroke="#58595b" stroke-width="2"><circle cx="4" cy="4" r="4" stroke="none"/><circle cx="4" cy="4" r="3" fill="none"/></g><g transform="translate(8 36) rotate(180)" fill="none" stroke="#58595b" stroke-width="2"><circle cx="4" cy="4" r="4" stroke="none"/><circle cx="4" cy="4" r="3" fill="none"/></g><g transform="translate(8 8) rotate(180)" fill="none" stroke="#58595b" stroke-width="2"><circle cx="4" cy="4" r="4" stroke="none"/><circle cx="4" cy="4" r="3" fill="none"/></g></g><g transform="translate(484 29) rotate(90)"><g transform="translate(8 484) rotate(180)" fill="none" stroke="#58595b" stroke-width="2"><circle cx="4" cy="4" r="4" stroke="none"/><circle cx="4" cy="4" r="3" fill="none"/></g><g transform="translate(8 456) rotate(180)" fill="none" stroke="#58595b" stroke-width="2"><circle cx="4" cy="4" r="4" stroke="none"/><circle cx="4" cy="4" r="3" fill="none"/></g><g transform="translate(8 428) rotate(180)" fill="none" stroke="#58595b" stroke-width="2"><circle cx="4" cy="4" r="4" stroke="none"/><circle cx="4" cy="4" r="3" fill="none"/></g><g transform="translate(8 400) rotate(180)" fill="none" stroke="#58595b" stroke-width="2"><circle cx="4" cy="4" r="4" stroke="none"/><circle cx="4" cy="4" r="3" fill="none"/></g><g transform="translate(8 372) rotate(180)" fill="none" stroke="#58595b" stroke-width="2"><circle cx="4" cy="4" r="4" stroke="none"/><circle cx="4" cy="4" r="3" fill="none"/></g><g transform="translate(8 344) rotate(180)" fill="none" stroke="#58595b" stroke-width="2"><circle cx="4" cy="4" r="4" stroke="none"/><circle cx="4" cy="4" r="3" fill="none"/></g><g transform="translate(8 316) rotate(180)" fill="none" stroke="#58595b" stroke-width="2"><circle cx="4" cy="4" r="4" stroke="none"/><circle cx="4" cy="4" r="3" fill="none"/></g><g transform="translate(8 288) rotate(180)" fill="none" stroke="#58595b" stroke-width="2"><circle cx="4" cy="4" r="4" stroke="none"/><circle cx="4" cy="4" r="3" fill="none"/></g><g transform="translate(8 260) rotate(180)" fill="none" stroke="#58595b" stroke-width="2"><circle cx="4" cy="4" r="4" stroke="none"/><circle cx="4" cy="4" r="3" fill="none"/></g><g transform="translate(8 232) rotate(180)" fill="none" stroke="#58595b" stroke-width="2"><circle cx="4" cy="4" r="4" stroke="none"/><circle cx="4" cy="4" r="3" fill="none"/></g><g transform="translate(8 204) rotate(180)" fill="none" stroke="#58595b" stroke-width="2"><circle cx="4" cy="4" r="4" stroke="none"/><circle cx="4" cy="4" r="3" fill="none"/></g><g transform="translate(8 176) rotate(180)" fill="none" stroke="#58595b" stroke-width="2"><circle cx="4" cy="4" r="4" stroke="none"/><circle cx="4" cy="4" r="3" fill="none"/></g><g transform="translate(8 148) rotate(180)" fill="none" stroke="#58595b" stroke-width="2"><circle cx="4" cy="4" r="4" stroke="none"/><circle cx="4" cy="4" r="3" fill="none"/></g><g transform="translate(8 120) rotate(180)" fill="none" stroke="#58595b" stroke-width="2"><circle cx="4" cy="4" r="4" stroke="none"/><circle cx="4" cy="4" r="3" fill="none"/></g><g transform="translate(8 92) rotate(180)" fill="none" stroke="#58595b" stroke-width="2"><circle cx="4" cy="4" r="4" stroke="none"/><circle cx="4" cy="4" r="3" fill="none"/></g><g transform="translate(8 64) rotate(180)" fill="none" stroke="#58595b" stroke-width="2"><circle cx="4" cy="4" r="4" stroke="none"/><circle cx="4" cy="4" r="3" fill="none"/></g><g transform="translate(8 36) rotate(180)" fill="none" stroke="#58595b" stroke-width="2"><circle cx="4" cy="4" r="4" stroke="none"/><circle cx="4" cy="4" r="3" fill="none"/></g><g transform="translate(8 8) rotate(180)" fill="none" stroke="#58595b" stroke-width="2"><circle cx="4" cy="4" r="4" stroke="none"/><circle cx="4" cy="4" r="3" fill="none"/></g></g><g transform="translate(484 58) rotate(90)"><g transform="translate(8 484) rotate(180)" fill="none" stroke="#58595b" stroke-width="2"><circle cx="4" cy="4" r="4" stroke="none"/><circle cx="4" cy="4" r="3" fill="none"/></g><g transform="translate(8 456) rotate(180)" fill="none" stroke="#58595b" stroke-width="2"><circle cx="4" cy="4" r="4" stroke="none"/><circle cx="4" cy="4" r="3" fill="none"/></g><g transform="translate(8 428) rotate(180)" fill="none" stroke="#58595b" stroke-width="2"><circle cx="4" cy="4" r="4" stroke="none"/><circle cx="4" cy="4" r="3" fill="none"/></g><g transform="translate(8 400) rotate(180)" fill="none" stroke="#58595b" stroke-width="2"><circle cx="4" cy="4" r="4" stroke="none"/><circle cx="4" cy="4" r="3" fill="none"/></g><g transform="translate(8 372) rotate(180)" fill="none" stroke="#58595b" stroke-width="2"><circle cx="4" cy="4" r="4" stroke="none"/><circle cx="4" cy="4" r="3" fill="none"/></g><g transform="translate(8 344) rotate(180)" fill="none" stroke="#58595b" stroke-width="2"><circle cx="4" cy="4" r="4" stroke="none"/><circle cx="4" cy="4" r="3" fill="none"/></g><g transform="translate(8 316) rotate(180)" fill="none" stroke="#58595b" stroke-width="2"><circle cx="4" cy="4" r="4" stroke="none"/><circle cx="4" cy="4" r="3" fill="none"/></g><g transform="translate(8 288) rotate(180)" fill="none" stroke="#58595b" stroke-width="2"><circle cx="4" cy="4" r="4" stroke="none"/><circle cx="4" cy="4" r="3" fill="none"/></g><g transform="translate(8 260) rotate(180)" fill="none" stroke="#58595b" stroke-width="2"><circle cx="4" cy="4" r="4" stroke="none"/><circle cx="4" cy="4" r="3" fill="none"/></g><g transform="translate(8 232) rotate(180)" fill="none" stroke="#58595b" stroke-width="2"><circle cx="4" cy="4" r="4" stroke="none"/><circle cx="4" cy="4" r="3" fill="none"/></g><g transform="translate(8 204) rotate(180)" fill="none" stroke="#58595b" stroke-width="2"><circle cx="4" cy="4" r="4" stroke="none"/><circle cx="4" cy="4" r="3" fill="none"/></g><g transform="translate(8 176) rotate(180)" fill="none" stroke="#58595b" stroke-width="2"><circle cx="4" cy="4" r="4" stroke="none"/><circle cx="4" cy="4" r="3" fill="none"/></g><g transform="translate(8 148) rotate(180)" fill="none" stroke="#58595b" stroke-width="2"><circle cx="4" cy="4" r="4" stroke="none"/><circle cx="4" cy="4" r="3" fill="none"/></g><g transform="translate(8 120) rotate(180)" fill="none" stroke="#58595b" stroke-width="2"><circle cx="4" cy="4" r="4" stroke="none"/><circle cx="4" cy="4" r="3" fill="none"/></g><g transform="translate(8 92) rotate(180)" fill="none" stroke="#58595b" stroke-width="2"><circle cx="4" cy="4" r="4" stroke="none"/><circle cx="4" cy="4" r="3" fill="none"/></g><g transform="translate(8 64) rotate(180)" fill="none" stroke="#58595b" stroke-width="2"><circle cx="4" cy="4" r="4" stroke="none"/><circle cx="4" cy="4" r="3" fill="none"/></g><g transform="translate(8 36) rotate(180)" fill="none" stroke="#58595b" stroke-width="2"><circle cx="4" cy="4" r="4" stroke="none"/><circle cx="4" cy="4" r="3" fill="none"/></g><g transform="translate(8 8) rotate(180)" fill="none" stroke="#58595b" stroke-width="2"><circle cx="4" cy="4" r="4" stroke="none"/><circle cx="4" cy="4" r="3" fill="none"/></g></g></g><g transform="translate(504 443) rotate(-90)" fill="none" stroke="#58595b" stroke-width="2"><circle cx="4" cy="4" r="4" stroke="none"/><circle cx="4" cy="4" r="3" fill="none"/></g><g transform="translate(532 443) rotate(-90)" fill="none" stroke="#58595b" stroke-width="2"><circle cx="4" cy="4" r="4" stroke="none"/><circle cx="4" cy="4" r="3" fill="none"/></g><g transform="translate(560 443) rotate(-90)" fill="none" stroke="#58595b" stroke-width="2"><circle cx="4" cy="4" r="4" stroke="none"/><circle cx="4" cy="4" r="3" fill="none"/></g><g transform="translate(588 443) rotate(-90)" fill="none" stroke="#58595b" stroke-width="2"><circle cx="4" cy="4" r="4" stroke="none"/><circle cx="4" cy="4" r="3" fill="none"/></g><g transform="translate(616 443) rotate(-90)" fill="none" stroke="#58595b" stroke-width="2"><circle cx="4" cy="4" r="4" stroke="none"/><circle cx="4" cy="4" r="3" fill="none"/></g><g transform="translate(644 443) rotate(-90)" fill="none" stroke="#58595b" stroke-width="2"><circle cx="4" cy="4" r="4" stroke="none"/><circle cx="4" cy="4" r="3" fill="none"/></g><g transform="translate(672 443) rotate(-90)" fill="none" stroke="#58595b" stroke-width="2"><circle cx="4" cy="4" r="4" stroke="none"/><circle cx="4" cy="4" r="3" fill="none"/></g><g transform="translate(504 472) rotate(-90)" fill="none" stroke="#58595b" stroke-width="2"><circle cx="4" cy="4" r="4" stroke="none"/><circle cx="4" cy="4" r="3" fill="none"/></g><g transform="translate(532 472) rotate(-90)" fill="none" stroke="#58595b" stroke-width="2"><circle cx="4" cy="4" r="4" stroke="none"/><circle cx="4" cy="4" r="3" fill="none"/></g><g transform="translate(560 472) rotate(-90)" fill="none" stroke="#58595b" stroke-width="2"><circle cx="4" cy="4" r="4" stroke="none"/><circle cx="4" cy="4" r="3" fill="none"/></g><g transform="translate(588 472) rotate(-90)" fill="none" stroke="#58595b" stroke-width="2"><circle cx="4" cy="4" r="4" stroke="none"/><circle cx="4" cy="4" r="3" fill="none"/></g><g transform="translate(616 472) rotate(-90)" fill="none" stroke="#58595b" stroke-width="2"><circle cx="4" cy="4" r="4" stroke="none"/><circle cx="4" cy="4" r="3" fill="none"/></g><g transform="translate(644 472) rotate(-90)" fill="none" stroke="#58595b" stroke-width="2"><circle cx="4" cy="4" r="4" stroke="none"/><circle cx="4" cy="4" r="3" fill="none"/></g><g transform="translate(672 472) rotate(-90)" fill="none" stroke="#58595b" stroke-width="2"><circle cx="4" cy="4" r="4" stroke="none"/><circle cx="4" cy="4" r="3" fill="none"/></g><g transform="translate(504 501) rotate(-90)" fill="none" stroke="#58595b" stroke-width="2"><circle cx="4" cy="4" r="4" stroke="none"/><circle cx="4" cy="4" r="3" fill="none"/></g><g transform="translate(532 501) rotate(-90)" fill="none" stroke="#58595b" stroke-width="2"><circle cx="4" cy="4" r="4" stroke="none"/><circle cx="4" cy="4" r="3" fill="none"/></g><g transform="translate(560 501) rotate(-90)" fill="none" stroke="#58595b" stroke-width="2"><circle cx="4" cy="4" r="4" stroke="none"/><circle cx="4" cy="4" r="3" fill="none"/></g><g transform="translate(588 501) rotate(-90)" fill="none" stroke="#58595b" stroke-width="2"><circle cx="4" cy="4" r="4" stroke="none"/><circle cx="4" cy="4" r="3" fill="none"/></g><g transform="translate(616 501) rotate(-90)" fill="none" stroke="#58595b" stroke-width="2"><circle cx="4" cy="4" r="4" stroke="none"/><circle cx="4" cy="4" r="3" fill="none"/></g><g transform="translate(644 501) rotate(-90)" fill="none" stroke="#58595b" stroke-width="2"><circle cx="4" cy="4" r="4" stroke="none"/><circle cx="4" cy="4" r="3" fill="none"/></g><g transform="translate(672 501) rotate(-90)" fill="none" stroke="#58595b" stroke-width="2"><circle cx="4" cy="4" r="4" stroke="none"/><circle cx="4" cy="4" r="3" fill="none"/></g></g></svg>