<?xml version="1.0" standalone="no"?>
<!DOCTYPE svg PUBLIC "-//W3C//DTD SVG 20010904//EN"
 "http://www.w3.org/TR/2001/REC-SVG-20010904/DTD/svg10.dtd">
<svg version="1.0" xmlns="http://www.w3.org/2000/svg"
 width="280.000000pt" height="280.000000pt" viewBox="0 0 280.000000 280.000000"
 preserveAspectRatio="xMidYMid meet">
<metadata>
Created by potrace 1.14, written by Peter Selinger 2001-2017
</metadata>
<g transform="translate(0.000000,280.000000) scale(0.100000,-0.100000)"
fill="#000000" stroke="none">
<path d="M150 2570 l0 -80 1250 0 1250 0 0 80 0 80 -1250 0 -1250 0 0 -80z"/>
<path d="M752 2032 c-45 -14 -90 -60 -109 -114 -16 -49 -18 -93 -18 -528 l0
-475 27 -56 c40 -80 85 -104 198 -104 47 1 101 6 121 13 83 29 119 112 119
274 l0 98 -80 0 -80 0 0 -82 c0 -140 -25 -187 -91 -173 -16 4 -35 16 -42 28
-14 26 -23 866 -10 931 18 84 104 101 130 26 7 -19 12 -70 12 -112 l1 -78 81
0 82 0 -5 108 c-8 196 -60 253 -228 251 -47 -1 -95 -4 -108 -7z"/>
<path d="M1850 2024 c-90 -39 -122 -101 -128 -250 -6 -150 5 -179 143 -383
152 -225 145 -208 145 -346 0 -110 -1 -117 -25 -140 -30 -30 -66 -32 -91 -4
-15 17 -19 40 -22 125 l-4 104 -79 0 -79 0 0 -106 c0 -126 13 -176 57 -220 40
-40 117 -59 201 -48 161 19 217 110 210 338 -5 146 -4 144 -161 371 -61 88
-117 176 -124 195 -25 70 -12 232 19 252 23 14 64 9 81 -10 13 -15 17 -39 17
-115 l0 -97 87 0 86 0 -7 107 c-11 188 -59 243 -211 242 -49 0 -94 -6 -115
-15z"/>
<path d="M1160 1955 l0 -65 75 0 75 0 0 -560 0 -561 83 3 82 3 3 558 2 557 75
0 75 0 0 65 0 65 -235 0 -235 0 0 -65z"/>
<path d="M150 230 l0 -80 1250 0 1250 0 0 80 0 80 -1250 0 -1250 0 0 -80z"/>
</g>
</svg>
