<?xml version="1.0" standalone="no"?>
<!DOCTYPE svg PUBLIC "-//W3C//DTD SVG 20010904//EN"
 "http://www.w3.org/TR/2001/REC-SVG-20010904/DTD/svg10.dtd">
<svg version="1.0" xmlns="http://www.w3.org/2000/svg"
 width="366.000000pt" height="366.000000pt" viewBox="0 0 366.000000 366.000000"
 preserveAspectRatio="xMidYMid meet">
<metadata>
Created by potrace 1.14, written by Peter Selinger 2001-2017
</metadata>
<g transform="translate(0.000000,366.000000) scale(0.100000,-0.100000)"
fill="#000000" stroke="none">
<path d="M0 1830 l0 -1830 1830 0 1830 0 0 1830 0 1830 -1830 0 -1830 0 0
-1830z m3650 0 l0 -1820 -1820 0 -1820 0 0 1820 0 1820 1820 0 1820 0 0 -1820z"/>
<path d="M295 2388 c-46 -25 -45 -14 -45 -568 l0 -527 23 -21 c23 -22 27 -22
408 -22 211 0 389 4 394 8 33 24 32 19 190 833 50 256 49 275 -2 298 -33 15
-940 15 -968 -1z m228 -340 c55 -258 67 -312 71 -315 2 -3 14 40 26 94 12 54
32 141 45 193 l22 95 66 3 66 3 10 -38 c5 -21 26 -109 46 -196 20 -87 38 -157
40 -155 2 2 22 90 46 196 l42 192 59 0 c32 0 58 -3 58 -7 -1 -5 -34 -141 -74
-303 l-73 -295 -68 0 -68 0 -42 175 c-48 204 -51 211 -58 190 -4 -13 -66 -274
-83 -348 -4 -21 -9 -23 -71 -20 l-67 3 -76 303 -76 302 72 0 72 0 15 -72z"/>
<path d="M2573 2390 c-12 -5 -27 -18 -33 -30 -10 -18 -83 -376 -181 -888 l-32
-164 20 -26 20 -27 488 -3 489 -2 23 22 23 21 0 526 c0 503 -1 527 -20 551
l-19 25 -378 2 c-208 1 -388 -2 -400 -7z m456 -291 c47 -26 97 -95 107 -146 4
-19 5 -35 3 -37 -2 -2 -31 -7 -64 -11 l-60 -6 -13 34 c-24 67 -84 91 -139 58
-77 -47 -86 -268 -15 -343 52 -56 162 -24 162 47 0 24 -3 25 -55 25 l-55 0 0
54 c0 30 3 57 8 59 4 2 58 2 120 -1 l112 -5 0 -158 0 -159 -29 0 c-24 0 -31 6
-40 32 l-11 31 -23 -20 c-39 -36 -84 -53 -139 -53 -96 1 -166 49 -210 145 -20
43 -23 66 -23 165 0 104 3 120 27 170 33 67 80 114 133 135 56 21 152 14 204
-16z"/>
</g>
</svg>
